<svg xmlns="http://www.w3.org/2000/svg" viewBox="0 0 200 200" fill="none" stroke="#1e6091" stroke-width="1.5" stroke-linecap="round" stroke-linejoin="round">
  <!-- Mạng lưới các nốt mô phỏng não AI -->
  <g>
    <circle cx="60" cy="70" r="3" fill="#1e6091"/>
    <circle cx="100" cy="50" r="3" fill="#1e6091"/>
    <circle cx="140" cy="70" r="3" fill="#1e6091"/>
    <circle cx="160" cy="110" r="3" fill="#1e6091"/>
    <circle cx="130" cy="150" r="3" fill="#1e6091"/>
    <circle cx="80" cy="155" r="3" fill="#1e6091"/>
    <circle cx="45" cy="120" r="3" fill="#1e6091"/>
    <circle cx="100" cy="100" r="3" fill="#1e6091"/>
    <circle cx="115" cy="85" r="3" fill="#1e6091"/>
    <circle cx="75" cy="105" r="3" fill="#1e6091"/>
    <circle cx="125" cy="120" r="3" fill="#1e6091"/>
  </g>
  <g opacity="0.85">
    <line x1="60" y1="70" x2="100" y2="50"/>
    <line x1="100" y1="50" x2="140" y2="70"/>
    <line x1="140" y1="70" x2="160" y2="110"/>
    <line x1="160" y1="110" x2="130" y2="150"/>
    <line x1="130" y1="150" x2="80" y2="155"/>
    <line x1="80" y1="155" x2="45" y2="120"/>
    <line x1="45" y1="120" x2="60" y2="70"/>
    <line x1="100" y1="100" x2="60" y2="70"/>
    <line x1="100" y1="100" x2="140" y2="70"/>
    <line x1="100" y1="100" x2="115" y2="85"/>
    <line x1="100" y1="100" x2="75" y2="105"/>
    <line x1="100" y1="100" x2="125" y2="120"/>
    <line x1="115" y1="85" x2="100" y2="50"/>
    <line x1="75" y1="105" x2="45" y2="120"/>
    <line x1="125" y1="120" x2="160" y2="110"/>
    <line x1="125" y1="120" x2="130" y2="150"/>
  </g>
  <!-- Đường viền hình "đầu/khối não" -->
  <path d="M 100 30 C 60 30, 30 60, 35 110 C 38 145, 70 175, 110 170 C 150 165, 175 130, 165 95 C 158 65, 135 35, 100 30 Z" opacity="0.6"/>
</svg>
